<svg xmlns="http://www.w3.org/2000/svg" viewBox="0 0 171.56 101"><defs><style>.cls-1{fill:#fff;}</style></defs><title>LOGOSEMITUITREAL</title><g id="Layer_2" data-name="Layer 2"><g id="Layer_1-2" data-name="Layer 1"><path d="M22,29.05l26-6.91,79,.69,27,8.3h9l-1-6.23s10-1.38,2-5.53L123,6.92H44L10,16.6s-2,2.08-2,3.46,2,2.77,2,2.77L9,29.05Z"/><path d="M73,6.92,72,5.53s-3-.69-2-1.38S83,0,83,0h7s11,2.77,12,3.46,2,2.07,1,2.07-2,1.39-2,1.39Z"/><rect class="cls-1" x="83" y="4.15" width="7" height="2.77"/><rect class="cls-1" x="93" y="4.84" width="3" height="2.08"/><rect class="cls-1" x="77" y="4.84" width="3" height="2.08"/><polygon points="45 20.06 46 24.21 43 72.64 54 72.64 54 20.06 45 20.06"/><polygon points="125 21.45 124 25.6 127 74.02 116 74.02 116 21.45 125 21.45"/><path d="M20,29.05H5S5,33.9,6,33.9a17.85,17.85,0,0,1,4,1.38L9,74h8Z"/><path d="M151,29.05h15s0,4.85-1,4.85a17.85,17.85,0,0,0-4,1.38L162,74h-8Z"/><polygon points="0 74.02 54 75.4 50 92.7 0 89.93 0 74.02"/><polygon points="113.53 75.67 119.51 92.12 170.47 90.67 171.56 75.4 113.53 75.67"/><rect x="59" y="74.02" width="51" height="3.46"/><rect x="57" y="78.17" width="55" height="3.46"/><rect x="56" y="82.32" width="57" height="3.46"/><rect x="54" y="87.16" width="61" height="3.46"/><rect x="50" y="92.01" width="67" height="3.46"/><rect x="42" y="97.54" width="82" height="3.46"/></g></g></svg>